<?xml version="1.0" encoding="UTF-8"?><svg id="Layer_1" xmlns="http://www.w3.org/2000/svg" viewBox="0 0 258 52.5"><defs><style>.cls-1{fill:#009444;}.cls-2{fill:#7f3f98;}.cls-3{fill:#ae8cc1;}.cls-4{fill:#bca1cc;}.cls-5{fill:#1c75bc;}.cls-6{fill:none;stroke:#bcbec0;stroke-miterlimit:10;stroke-width:1.16px;}</style></defs><g><line class="cls-6" x1="38.96" y1="6.04" x2="52.11" y2="14.93"/><line class="cls-6" x1="38.96" y1="6.04" x2="26.19" y2="7.97"/><g><polyline class="cls-6" points="13.43 10.68 6.08 18.41 9.56 28.47 20 33.11 26.19 42.78"/><polyline class="cls-6" points="63 21.6 52.11 14.93 36.63 17.25 20 21.89 9.95 28.08"/><polyline class="cls-6" points="38.96 6.04 36.63 17.25 32.77 32.34 48.24 29.63 52.11 14.93"/><polyline class="cls-6" points="20 21.89 26.19 7.97 36.63 17.25"/></g></g><circle class="cls-1" cx="6.08" cy="18.41" r="3.09"/><circle class="cls-1" cx="13.43" cy="10.68" r="3.48"/><circle class="cls-5" cx="26.19" cy="7.97" r="5.42"/><circle class="cls-5" cx="38.96" cy="6.04" r="3.09"/><circle class="cls-4" cx="63" cy="21.6" r="5.42"/><circle class="cls-5" cx="52.11" cy="14.93" r="3.09"/><circle class="cls-5" cx="48.24" cy="29.63" r="4.64"/><circle class="cls-5" cx="36.63" cy="17.25" r="4.64"/><circle class="cls-5" cx="32.77" cy="32.34" r="5.42"/><circle class="cls-1" cx="26.19" cy="42.78" r="3.87"/><circle class="cls-1" cx="20" cy="33.11" r="3.09"/><circle class="cls-1" cx="9.95" cy="28.08" r="3.48"/><circle class="cls-1" cx="20" cy="21.89" r="4.25"/><g><path class="cls-2" d="M72.38,8.68h21.06v5.13h-14.2v5.13h13.19v4.98h-13.19v6.3h14.65v5.28h-21.51V8.68Z"/><path class="cls-2" d="M123.08,38.36c-2.21-.82-3.67-1.91-5.92-3.56-1.05,.38-3.11,1.16-6.52,1.16-8.51,0-13.34-5.43-13.34-13.83s4.8-13.9,13.45-13.9,13.45,5.17,13.45,13.87c0,4.31-1.12,7.38-3.15,9.74,1.05,.79,1.91,1.35,4.16,2.29l-2.14,4.23Zm-12.41-12.85c1.01,.3,2.55,.75,5.1,2.7,.56-.94,1.46-2.25,1.46-6.22,0-6.22-2.89-8.32-6.48-8.32-6.26,0-6.48,6.6-6.48,8.43,0,1.61,.34,3.52,.83,4.68,1.24,2.96,3.93,3.75,5.58,3.75,.9,0,1.39-.11,1.8-.22-.37-.34-1.69-1.12-3.22-1.76l1.42-3.04Z"/><path class="cls-2" d="M134.96,8.68v15.48c0,2.36,0,6.37,5.02,6.37s4.83-3.79,4.83-6.22V8.68h6.86v15.03c0,3.93,0,12.25-11.28,12.25-4.16,0-8.43-.52-10.87-4.68-1.42-2.36-1.42-6.45-1.42-7.42V8.68h6.86Z"/><path class="cls-2" d="M157.03,8.68h6.3v4.87h-6.3v-4.87Zm0,7.42h6.3v19.41h-6.3V16.1Z"/><path class="cls-2" d="M174,39.39c-2.06-3-6.07-9.33-6.07-17.76s3.6-13.9,6.11-17.39h4.08c-3.52,7.91-4.38,12.63-4.38,17.61,0,7.35,2.32,13.27,4.38,17.54h-4.12Z"/><path class="cls-3" d="M205.45,26.11c-.1,.4-.19,.81-.27,1.25s-.17,.89-.27,1.35h-.76v5.74h-6.98l-5.28-8.37h-2l.18-2.44c.06,.04,.15,.03,.27-.03l-2.03-3.26v14.11h-5.31v-1.48c0-.07,.06-.27,.17-.61,.11-.34,.2-.67,.26-.97,.04-.18,.05-.41,.03-.69-.02-.29-.03-.48-.03-.59,0-.33-.01-.66-.03-.99-.02-.33-.08-.66-.18-.99-.04-.09-.07-.2-.09-.33-.02-.13-.05-.26-.09-.4-.12,.09-.2,.26-.24,.53-.04,.26-.08,.48-.12,.66-.02,.04-.04,.07-.06,.08-.02,.01-.03,.06-.03,.15v5.64h-1.21v-5.41c-.14-.11-.29-.21-.44-.31-.15-.1-.31-.2-.47-.31,.08-.02,.2-.09,.35-.2,.15-.11,.26-.16,.32-.16,.16,0,.24,.04,.24,.13v-.23c-.12-.09-.25-.18-.39-.28-.14-.1-.27-.18-.39-.25,.12-.04,.25-.1,.39-.18,.14-.08,.27-.15,.39-.21-.1-.13-.22-.23-.35-.3-.13-.07-.27-.15-.41-.26V11.6c.14-.07,.26-.13,.36-.2,.1-.07,.23-.15,.39-.26v-2.54h1.27V27.2c.08-.31,.16-.65,.24-1.04,.08-.38,.12-.62,.12-.71V15.82c0-.07,.07-.21,.21-.45,.14-.23,.21-.39,.21-.48v-5.14c0-.09,.05-.25,.15-.5,.1-.24,.18-.46,.24-.66h4.4l8.92,14.18V8.6h6.98v2.7c-.1-.02-.19-.03-.27-.02-.08,.01-.17,.03-.27,.05-.06,.11-.12,.25-.17,.41-.05,.17-.08,.29-.08,.38v10.29c0,.18,.06,.34,.18,.5,.04,.02,.09,.03,.14,.02,.05-.01,.1,0,.14,.02v.07s0,.04,.01,.05c0,.01,.02,.03,.02,.05-.06,.02-.12,.02-.18-.02-.06-.03-.12,0-.18,.12,.18,.13,.32,.16,.42,.1,.02,.04,.02,.1,.01,.17,0,.07-.01,.14-.01,.21s.01,.14,.04,.2,.1,.09,.2,.12v.69h-8.07s-.07,.08-.09,.1c-.02,.02-.03,.09-.03,.2,0,.13,.04,.35,.11,.64,.07,.3,.19,.45,.35,.45s.27-.12,.32-.35c.05-.23,.13-.44,.23-.64h.27c0,.13-.04,.28-.12,.43-.08,.15-.1,.34-.06,.56,.14,0,.24-.12,.29-.36,.05-.24,.11-.45,.17-.63h.33c-.04,.18-.09,.32-.15,.45s-.07,.3-.03,.54c.14-.02,.23-.14,.27-.36,.04-.22,.1-.42,.18-.59h.33c-.04,.11-.09,.25-.14,.41-.05,.17-.11,.33-.17,.51v.03h.09c.06,0,.12-.04,.18-.13s.11-.19,.15-.3c.04-.11,.07-.22,.09-.33,.02-.11,.04-.19,.06-.23h.27c0,.13-.04,.28-.12,.43-.08,.15-.1,.34-.06,.56,.2-.02,.31-.15,.32-.38,0-.23,.08-.43,.2-.61h.27c-.04,.18-.09,.32-.15,.45s-.07,.3-.03,.54c.16,0,.25-.12,.27-.36s.08-.44,.18-.59h.33c-.04,.11-.09,.25-.14,.43-.05,.18-.11,.32-.17,.43l.12,.1c.1,.02,.19-.09,.26-.35,.07-.25,.14-.46,.2-.61h.27c-.04,.13-.08,.28-.12,.45-.04,.16-.06,.35-.06,.54,.14,.02,.24-.09,.29-.33,.05-.24,.13-.47,.23-.69h.27c0,.13-.04,.28-.12,.43-.08,.15-.1,.34-.06,.56,.14,0,.24-.12,.29-.36s.11-.45,.17-.63h.33c-.04,.18-.09,.32-.15,.45-.06,.12-.07,.3-.03,.54,.14-.02,.23-.14,.27-.36,.04-.22,.1-.42,.18-.59h.33c-.06,.13-.11,.28-.14,.45-.03,.16-.07,.35-.11,.54,.18-.02,.29-.15,.32-.4s.1-.45,.2-.63h.27c0,.13-.04,.28-.12,.43-.08,.15-.1,.34-.06,.56,.2-.02,.31-.15,.32-.38,0-.23,.08-.43,.2-.61h.27c-.04,.18-.09,.32-.15,.45s-.07,.3-.03,.54c.08-.02,.14-.07,.18-.15,.04-.08,.08-.17,.11-.28,.03-.11,.07-.21,.11-.31,.04-.1,.1-.18,.18-.25,.02,.13,.02,.28,0,.45s-.05,.31-.09,.45c.22,.11,.46,.15,.71,.12s.5-.03,.74,.02Zm-14.95-1.91h-.09l-.15,1.29h.12l.12-1.29Zm.18,0h-.09l-.12,1.29h.12l.09-1.29Zm.12,.1c-.04,.2-.06,.4-.06,.61s0,.4-.03,.58c.04-.2,.07-.4,.08-.61,0-.21,.01-.4,.01-.58Zm.24,.36h-.09l-.09,.82h.12l.06-.82Zm.18,.26h-.09l-.09,.56h.12l.06-.56Zm.12,.56v-.3h-.09v.3h.09Z"/><path class="cls-3" d="M225.83,36.45h-.97c-.08,.02-.11,.02-.08,0,.03-.02,.02-.05-.02-.1-.1-.04-.21-.08-.33-.12-.12-.03-.25-.06-.39-.08-.14-.02-.3-.01-.49,.03-.18,.04-.36,.06-.55,.03-.1-.02-.22-.05-.35-.08-.13-.03-.24-.05-.32-.05h-7.61s-.07,0-.14,.02c-.07,.01-.15,.03-.24,.05-.09,.02-.17,.06-.24,.12-.07,.05-.11,.12-.11,.18h-8.22v-2.27h.5c.17,0,.35-.01,.53-.03,.06-.09,.14-.19,.23-.31,.09-.12,.14-.22,.14-.31v-4.15h2.3c.08-.09,.12-.14,.12-.17-.24-.04-.49-.07-.73-.07h-.73s0-.08,.01-.12,0-.07-.04-.12c-.04,.04-.06,.12-.06,.23h-.88v-1.55c.1,.04,.23,.08,.39,.1,.16,.02,.29-.02,.39-.13-.1-.11-.23-.16-.39-.15-.16,.01-.29,.04-.39,.08v-3.5c0-.07-.04-.18-.11-.35-.07-.17-.14-.3-.2-.41-.18-.02-.36-.02-.55,0,0-.04,.02-.08,.06-.1,.04-.02,.06-.05,.06-.1l.03,.03s.02,.06,.06,.1c.04-.04,.06-.1,.06-.16,0,.07,.02,.12,.06,.16,.04-.04,.06-.1,.06-.16,0,.07,.02,.12,.06,.16,.04-.04,.06-.12,.06-.23,0,.04,0,.08-.01,.12-.01,.03,0,.07,.04,.12,.08-.11,.1-.2,.06-.28-.04-.08-.08-.16-.12-.25-.02,.02-.03,.08-.03,.17,0-.07-.02-.12-.06-.17-.04,.04-.06,.08-.06,.12s-.01,.07-.03,.12v-.2s-.09-.06-.15-.05c-.06,.01-.09,0-.09-.05-.04,.07-.04,.12-.01,.17s.04,.1,.04,.16c.02-.07,.02-.12-.01-.16s-.07-.1-.11-.17c0,.02-.01,.03-.03,.03l-.06,.07v-.23h-1.58l-.91-3.17h1.33s.06-.15,.06-.33c.04,.04,.08,.09,.12,.15,.04,.05,.09,.12,.15,.18l.39-.07s-.08-.07-.11-.13c-.03-.07-.08-.13-.14-.2h.21V10.63h1.03c-.06,.2-.06,.35,.01,.45,.07,.1,.17,.17,.3,.21s.27,.07,.42,.07h.32c.06,0,.18-.01,.36-.03,.18-.02,.31-.03,.39-.03s.12,.02,.12,.07,.04,.07,.12,.07h5.07c.24,0,.4-.05,.49-.17,.08-.11,.1-.32,.06-.63h11.01v5.47h-12.32v.76h1.46c-.04,.22-.07,.43-.09,.64-.02,.21-.05,.4-.09,.58h-5.4c-.02,.13,0,.32,.08,.56,.07,.24,.19,.47,.35,.69,.06-.09,.09-.17,.09-.23s-.01-.13-.04-.2c-.03-.07-.06-.13-.08-.18-.02-.05,0-.12,.06-.18h4.88c.02,.07,.03,.15,.02,.25-.01,.1-.04,.27-.08,.51h3.82c.06,.15,.11,.31,.15,.46,.04,.15,.11,.32,.21,.49h5.34c.04,.11,.07,.23,.09,.35,.02,.12,.03,.21,.03,.28l-5.34,.07c.04,.07,.07,.13,.09,.18,.02,.06,.05,.12,.09,.18l5.61-.07c-.06-.18-.11-.34-.15-.49-.04-.15-.09-.32-.15-.5h.46v5.24h-11.34c-.04,.07-.06,.13-.06,.2h-5.1c0,.44,.02,.86,.06,1.27,.04,.41,.08,.83,.12,1.27l1.43,.07c0-.32,0-.65,.03-.99,.02-.34,0-.7-.03-1.09h2.88v1.78h2.12c.04,.28,.08,.58,.11,.89,.03,.31,.12,.6,.26,.86,1.37,.02,2.75,.04,4.14,.05,1.38,.01,2.78,.02,4.17,.02h-.42c-.04,.12-.06,.22-.06,.33s-.02,.25-.06,.43c.04,0,.17,0,.38,.02,.21,.01,.47,.02,.77,.02s.62,0,.96-.02,.64-.02,.92-.02v.66c-.3-.07-.65-.07-1.03,0,.1,.18,.26,.24,.47,.2,.21-.04,.4-.05,.56-.03v5.04Zm-20.08-14.38v-.69s-.04-.08-.11-.18c-.07-.1-.15-.21-.24-.35-.09-.13-.17-.27-.24-.41-.07-.14-.11-.26-.11-.35s0-.16,.02-.21c0-.05,.02-.1,.02-.15h-1l.67,2.34h1Zm-.24-.4h-.52v-.76c.06,.11,.14,.23,.24,.36,.1,.13,.19,.26,.27,.4Zm.82,1.25h-.09v-.17h.09v.17Zm.24-.07h-.09v-.17h.09v.17Zm1.46,5.17v-.23h-.09v.23h.09Zm.06,.59v-.3h-.09v.3h.09Zm.12,1.11v-.3h-.09v.3h.09Zm.06,.48v-.23h-.09v.23h.09Zm.06,.6v-.3h-.09v.3h.09Zm5.73,.56v-.2h-5.73v.2h5.73Zm4.43-10.09c-.04-.07-.06-.13-.06-.2v-.16h-8.37l-.36-1.19h-.21c.06,.24,.13,.49,.21,.74,.08,.25,.15,.5,.21,.74,.06,.04,.13,.07,.21,.08,.08,.01,.14,.05,.18,.12,.1,.24,.17,.46,.21,.66h3.12c.04-.07,.07-.13,.08-.18,.01-.05,.05-.13,.11-.21h1.76c0-.13,.06-.26,.18-.4h2.73Zm-8.4,5.73h-.09l-.06,1.28h.09l.06-1.28Zm.18,0h-.09l-.12,1.28h.09l.12-1.28Zm.09,0c0,.13,0,.3-.01,.51-.01,.21-.04,.48-.08,.81,.04-.18,.07-.39,.08-.64,0-.25,.01-.48,.01-.68Zm.21,0h-.09l-.06,1.28h.09l.06-1.28Zm.18,0h-.09l-.06,1.28h.09l.06-1.28Zm.18,0h-.09l-.06,1.28h.09l.06-1.28Zm.18,0h-.09l-.12,1.28h.09l.12-1.28Zm.09,.07c0,.44-.03,.85-.09,1.25,.04-.31,.07-.55,.08-.72,.01-.17,.02-.35,.02-.52Zm.21-.07h-.09l-.06,1.28h.09l.06-1.28Zm.18,0h-.09l-.06,1.28h.09l.06-1.28Zm.18,0h-.09l-.06,1.28h.09l.06-1.28Zm.18,0h-.09l-.12,1.28h.09l.12-1.28Zm.12,0h-.09l-.03,1.28h.09l.03-1.28Zm.18,0h-.09l-.06,1.28h.09l.06-1.28Zm.18,0h-.09l-.06,1.26h.09l.06-1.26Zm1.49,3.57c-.04-.25-.06-.43-.06-.52v-.21h-.7v.73h.76Zm0-8.74s-.08,.03-.11,.1c-.03,.07-.03,.12,.01,.17,.06-.04,.1-.1,.12-.17,.02-.07,.01-.1-.03-.1Zm.24,0s-.07,.03-.08,.08c-.01,.06-.01,.1-.01,.15,.06-.04,.1-.09,.12-.15,.02-.05,0-.08-.03-.08Zm.15,.23c.14-.07,.14-.14,0-.23v.23Zm3.79-1.85c0-.11-.01-.2-.03-.26-.02-.07-.03-.12-.03-.17h-3.67v.43h3.73Zm4.61,15.92v-.1h-.15v.1h.15Zm1.15,0v-.1h-.15v.1h.15Zm.94-5.11v-.23h-.09v.23h.09Z"/><path class="cls-2" d="M232.25,4.23c2.06,3,6.07,9.33,6.07,17.76s-3.6,13.9-6.11,17.39h-4.08c3.52-7.91,4.38-12.63,4.38-17.61,0-7.34-2.32-13.27-4.38-17.54h4.12Z"/><path class="cls-2" d="M242.12,12.05c.28-2.27,1.2-4.81,5.73-4.81,1.99,0,2.91,.39,3.52,.74,1.29,.74,2.14,2.1,2.14,3.76,0,2.69-1.92,4.24-4.39,6.23-.39,.31-1.62,1.38-1.92,1.9h6.36v3.17h-11.78c.28-2.53,1.46-4.24,5.18-7.34,1.7-1.42,2.88-2.4,2.88-3.85,0-1.2-.87-1.88-1.95-1.88-1.86,0-2.05,1.77-2.1,2.4l-3.67-.33Z"/></g><g><path class="cls-2" d="M72.42,47.74v-5.37h3.88v.63h-3.17v1.64h2.97v.63h-2.97v1.83h3.3v.63h-4.01Z"/><path class="cls-2" d="M77.06,46.58l.65-.1c.04,.26,.14,.46,.31,.6,.17,.14,.4,.21,.7,.21s.53-.06,.67-.18c.15-.12,.22-.27,.22-.43,0-.15-.06-.27-.19-.35-.09-.06-.31-.13-.67-.22-.48-.12-.82-.23-1-.32s-.33-.21-.42-.37c-.1-.16-.14-.33-.14-.52,0-.17,.04-.33,.12-.48,.08-.15,.19-.27,.32-.37,.1-.08,.24-.14,.42-.19s.37-.08,.57-.08c.3,0,.57,.04,.8,.13s.4,.21,.51,.36c.11,.15,.19,.35,.23,.6l-.64,.09c-.03-.2-.11-.36-.25-.47s-.34-.17-.59-.17c-.3,0-.52,.05-.65,.15-.13,.1-.19,.22-.19,.35,0,.09,.03,.16,.08,.23,.05,.07,.14,.13,.25,.18,.07,.03,.26,.08,.58,.17,.47,.12,.79,.23,.98,.31s.33,.2,.43,.35c.11,.15,.16,.34,.16,.56s-.06,.43-.19,.62c-.13,.19-.31,.34-.55,.45-.24,.11-.52,.16-.82,.16-.51,0-.89-.1-1.16-.31-.27-.21-.43-.52-.51-.93Z"/><path class="cls-2" d="M82.51,47.15l.1,.58c-.19,.04-.35,.06-.5,.06-.24,0-.43-.04-.56-.11-.13-.08-.23-.17-.28-.3-.05-.12-.08-.38-.08-.78v-2.24h-.48v-.51h.48v-.96l.66-.4v1.36h.66v.51h-.66v2.27c0,.19,.01,.31,.04,.36,.02,.05,.06,.1,.11,.13,.05,.03,.13,.05,.23,.05,.07,0,.17,0,.29-.03Z"/><path class="cls-2" d="M85.7,47.26c-.24,.21-.48,.35-.71,.44-.23,.08-.47,.13-.73,.13-.43,0-.76-.1-.99-.31-.23-.21-.34-.47-.34-.8,0-.19,.04-.36,.13-.52,.09-.16,.2-.28,.34-.38,.14-.1,.3-.17,.47-.22,.13-.03,.32-.07,.59-.1,.53-.06,.92-.14,1.18-.23,0-.09,0-.15,0-.17,0-.27-.06-.46-.19-.57-.17-.15-.42-.22-.75-.22-.31,0-.54,.05-.69,.16-.15,.11-.26,.3-.33,.58l-.64-.09c.06-.28,.15-.5,.29-.67,.13-.17,.33-.3,.58-.39s.55-.14,.88-.14,.6,.04,.81,.12c.21,.08,.36,.18,.46,.29,.1,.12,.17,.27,.21,.45,.02,.11,.03,.31,.03,.61v.88c0,.61,.01,1,.04,1.16,.03,.16,.08,.32,.17,.47h-.69c-.07-.14-.11-.3-.13-.48Zm-.05-1.47c-.24,.1-.6,.18-1.08,.25-.27,.04-.46,.08-.57,.13-.11,.05-.2,.12-.26,.21-.06,.09-.09,.2-.09,.31,0,.18,.07,.32,.2,.44s.33,.18,.58,.18,.48-.06,.68-.17c.2-.11,.34-.26,.44-.46,.07-.15,.11-.37,.11-.66v-.24Z"/><path class="cls-2" d="M87.94,47.74h-.61v-5.37h.66v1.92c.28-.35,.63-.52,1.07-.52,.24,0,.47,.05,.68,.14,.21,.1,.39,.23,.53,.41,.14,.17,.25,.38,.32,.63,.08,.25,.12,.51,.12,.79,0,.67-.16,1.18-.49,1.54-.33,.36-.72,.55-1.19,.55s-.82-.19-1.08-.58v.49Zm0-1.97c0,.47,.06,.8,.19,1.01,.21,.34,.49,.51,.84,.51,.29,0,.54-.12,.75-.38,.21-.25,.31-.62,.31-1.12s-.1-.88-.3-1.12c-.2-.24-.45-.36-.73-.36s-.54,.13-.75,.38-.32,.61-.32,1.09Z"/><path class="cls-2" d="M91.48,47.74v-5.37h.66v5.37h-.66Z"/><path class="cls-2" d="M93.17,43.13v-.76h.66v.76h-.66Zm0,4.61v-3.89h.66v3.89h-.66Z"/><path class="cls-2" d="M94.57,46.58l.65-.1c.04,.26,.14,.46,.31,.6,.17,.14,.4,.21,.7,.21s.53-.06,.67-.18c.15-.12,.22-.27,.22-.43,0-.15-.06-.27-.19-.35-.09-.06-.31-.13-.67-.22-.48-.12-.82-.23-1-.32s-.33-.21-.42-.37c-.1-.16-.14-.33-.14-.52,0-.17,.04-.33,.12-.48,.08-.15,.19-.27,.32-.37,.1-.08,.24-.14,.42-.19s.37-.08,.57-.08c.3,0,.57,.04,.8,.13s.4,.21,.51,.36c.11,.15,.19,.35,.23,.6l-.64,.09c-.03-.2-.11-.36-.25-.47s-.34-.17-.59-.17c-.3,0-.52,.05-.65,.15-.13,.1-.19,.22-.19,.35,0,.09,.03,.16,.08,.23,.05,.07,.14,.13,.25,.18,.07,.03,.26,.08,.58,.17,.47,.12,.79,.23,.98,.31s.33,.2,.43,.35c.11,.15,.16,.34,.16,.56s-.06,.43-.19,.62c-.13,.19-.31,.34-.55,.45-.24,.11-.52,.16-.82,.16-.51,0-.89-.1-1.16-.31-.27-.21-.43-.52-.51-.93Z"/><path class="cls-2" d="M98.58,47.74v-5.37h.66v1.93c.31-.36,.7-.53,1.17-.53,.29,0,.54,.06,.75,.17,.21,.11,.37,.27,.46,.47,.09,.2,.14,.49,.14,.87v2.46h-.66v-2.46c0-.33-.07-.57-.21-.72-.14-.15-.35-.22-.61-.22-.2,0-.38,.05-.55,.15-.17,.1-.29,.24-.37,.41-.07,.17-.11,.41-.11,.72v2.13h-.66Z"/><path class="cls-2" d="M102.76,43.13v-.76h.66v.76h-.66Zm0,4.61v-3.89h.66v3.89h-.66Z"/><path class="cls-2" d="M104.42,47.74v-3.89h.59v.55c.29-.43,.7-.64,1.24-.64,.23,0,.45,.04,.65,.13s.34,.19,.44,.33,.17,.3,.21,.49c.02,.12,.04,.34,.04,.64v2.39h-.66v-2.37c0-.27-.03-.47-.08-.6-.05-.13-.14-.24-.27-.32-.13-.08-.28-.12-.46-.12-.28,0-.52,.09-.73,.27-.2,.18-.31,.52-.31,1.01v2.12h-.66Z"/><path class="cls-2" d="M108.47,48.06l.64,.1c.03,.2,.1,.34,.22,.43,.16,.12,.39,.18,.67,.18,.3,0,.54-.06,.71-.18,.17-.12,.28-.29,.34-.51,.03-.13,.05-.42,.05-.85-.29,.34-.65,.51-1.08,.51-.54,0-.95-.19-1.24-.58s-.44-.85-.44-1.39c0-.37,.07-.71,.2-1.03,.13-.31,.33-.56,.58-.73s.55-.26,.9-.26c.46,0,.84,.19,1.14,.56v-.47h.61v3.36c0,.61-.06,1.03-.19,1.29s-.32,.45-.59,.6-.6,.22-.99,.22c-.46,0-.84-.1-1.12-.31-.29-.21-.42-.52-.41-.94Zm.55-2.34c0,.51,.1,.88,.3,1.12,.2,.23,.46,.35,.76,.35s.56-.12,.76-.35,.31-.6,.31-1.1-.11-.83-.32-1.08c-.21-.24-.47-.36-.76-.36s-.54,.12-.75,.36-.31,.59-.31,1.06Z"/><path class="cls-2" d="M119,47.17c.33,.23,.63,.39,.91,.5l-.21,.5c-.39-.14-.77-.36-1.15-.66-.4,.22-.84,.33-1.32,.33s-.93-.12-1.32-.35-.7-.56-.91-.99-.32-.9-.32-1.44,.11-1.01,.32-1.45,.52-.77,.92-.99c.4-.23,.84-.34,1.33-.34s.94,.12,1.34,.35c.4,.24,.7,.57,.91,.99,.21,.42,.31,.9,.31,1.43,0,.44-.07,.84-.2,1.19-.13,.35-.34,.66-.61,.92Zm-1.56-.91c.41,.12,.75,.29,1.01,.51,.42-.38,.63-.95,.63-1.72,0-.43-.07-.81-.22-1.14-.15-.32-.36-.58-.65-.76s-.6-.27-.96-.27c-.53,0-.97,.18-1.32,.54-.35,.36-.52,.9-.52,1.62s.17,1.23,.52,1.61c.34,.37,.79,.56,1.32,.56,.25,0,.49-.05,.72-.14-.22-.14-.46-.25-.7-.31l.17-.52Z"/><path class="cls-2" d="M123.23,47.74v-.57c-.3,.44-.71,.66-1.23,.66-.23,0-.44-.04-.64-.13-.2-.09-.35-.2-.44-.33-.1-.13-.17-.3-.2-.49-.03-.13-.04-.33-.04-.62v-2.41h.66v2.16c0,.34,.01,.58,.04,.7,.04,.17,.13,.31,.26,.41,.13,.1,.3,.15,.5,.15s.38-.05,.56-.15c.17-.1,.3-.24,.37-.41,.07-.17,.11-.43,.11-.76v-2.08h.66v3.89h-.59Z"/><path class="cls-2" d="M127.39,47.26c-.24,.21-.48,.35-.71,.44-.23,.08-.47,.13-.73,.13-.43,0-.76-.1-.99-.31-.23-.21-.34-.47-.34-.8,0-.19,.04-.36,.13-.52,.09-.16,.2-.28,.34-.38,.14-.1,.3-.17,.47-.22,.13-.03,.32-.07,.59-.1,.53-.06,.92-.14,1.18-.23,0-.09,0-.15,0-.17,0-.27-.06-.46-.19-.57-.17-.15-.42-.22-.75-.22-.31,0-.54,.05-.69,.16-.15,.11-.26,.3-.33,.58l-.64-.09c.06-.28,.15-.5,.29-.67,.13-.17,.33-.3,.58-.39s.55-.14,.88-.14,.6,.04,.81,.12c.21,.08,.36,.18,.46,.29,.1,.12,.17,.27,.21,.45,.02,.11,.03,.31,.03,.61v.88c0,.61,.01,1,.04,1.16,.03,.16,.08,.32,.17,.47h-.69c-.07-.14-.11-.3-.13-.48Zm-.05-1.47c-.24,.1-.6,.18-1.08,.25-.27,.04-.46,.08-.57,.13-.11,.05-.2,.12-.26,.21-.06,.09-.09,.2-.09,.31,0,.18,.07,.32,.2,.44s.33,.18,.58,.18,.48-.06,.68-.17c.2-.11,.34-.26,.44-.46,.07-.15,.11-.37,.11-.66v-.24Z"/><path class="cls-2" d="M129.02,47.74v-3.89h.59v.55c.29-.43,.7-.64,1.24-.64,.23,0,.45,.04,.65,.13s.34,.19,.44,.33,.17,.3,.21,.49c.02,.12,.04,.34,.04,.64v2.39h-.66v-2.37c0-.27-.03-.47-.08-.6-.05-.13-.14-.24-.27-.32-.13-.08-.28-.12-.46-.12-.28,0-.52,.09-.73,.27-.2,.18-.31,.52-.31,1.01v2.12h-.66Z"/><path class="cls-2" d="M134.63,47.15l.1,.58c-.19,.04-.35,.06-.5,.06-.24,0-.43-.04-.56-.11-.13-.08-.23-.17-.28-.3-.05-.12-.08-.38-.08-.78v-2.24h-.48v-.51h.48v-.96l.66-.4v1.36h.66v.51h-.66v2.27c0,.19,.01,.31,.04,.36,.02,.05,.06,.1,.11,.13,.05,.03,.13,.05,.23,.05,.07,0,.17,0,.29-.03Z"/><path class="cls-2" d="M135.28,43.13v-.76h.66v.76h-.66Zm0,4.61v-3.89h.66v3.89h-.66Z"/><path class="cls-2" d="M137.1,47.74v-3.38h-.58v-.51h.58v-.41c0-.26,.02-.46,.07-.58,.06-.17,.17-.31,.33-.42s.38-.16,.67-.16c.19,0,.39,.02,.62,.07l-.1,.58c-.14-.02-.27-.04-.39-.04-.2,0-.34,.04-.42,.13-.08,.08-.12,.25-.12,.48v.36h.76v.51h-.76v3.38h-.66Z"/><path class="cls-2" d="M139.03,43.13v-.76h.66v.76h-.66Zm0,4.61v-3.89h.66v3.89h-.66Z"/><path class="cls-2" d="M143.35,46.49l.68,.08c-.11,.4-.31,.71-.6,.93-.29,.22-.66,.33-1.11,.33-.57,0-1.02-.17-1.35-.53s-.5-.84-.5-1.47,.17-1.16,.51-1.52c.34-.36,.77-.54,1.31-.54s.95,.18,1.27,.53c.33,.35,.49,.85,.49,1.49,0,.04,0,.1,0,.18h-2.9c.02,.43,.14,.75,.36,.98,.22,.23,.49,.34,.81,.34,.24,0,.45-.06,.62-.19s.31-.33,.41-.61Zm-2.16-1.07h2.17c-.03-.33-.11-.57-.25-.74-.21-.25-.48-.38-.82-.38-.3,0-.56,.1-.76,.3-.21,.2-.32,.47-.34,.81Z"/><path class="cls-2" d="M147.38,47.74v-.49c-.25,.39-.61,.58-1.09,.58-.31,0-.59-.09-.85-.26-.26-.17-.46-.41-.6-.72-.14-.31-.21-.66-.21-1.06s.07-.74,.19-1.06c.13-.32,.32-.56,.58-.73,.26-.17,.55-.25,.87-.25,.23,0,.44,.05,.63,.15,.18,.1,.33,.23,.45,.39v-1.93h.66v5.37h-.61Zm-2.08-1.94c0,.5,.11,.87,.32,1.12,.21,.25,.46,.37,.74,.37s.53-.12,.73-.35,.3-.59,.3-1.08c0-.53-.1-.92-.31-1.17s-.46-.37-.76-.37-.54,.12-.73,.36-.29,.62-.29,1.13Z"/><path class="cls-2" d="M154.72,42.37h.71v3.1c0,.54-.06,.97-.18,1.29s-.34,.58-.66,.77-.74,.3-1.25,.3-.92-.09-1.23-.26c-.32-.17-.55-.42-.68-.75s-.21-.78-.21-1.35v-3.1h.71v3.1c0,.47,.04,.81,.13,1.03,.09,.22,.24,.39,.45,.51,.21,.12,.47,.18,.77,.18,.52,0,.89-.12,1.12-.36,.22-.24,.33-.69,.33-1.37v-3.1Z"/><path class="cls-2" d="M156.53,47.74v-3.89h.59v.55c.29-.43,.7-.64,1.24-.64,.23,0,.45,.04,.65,.13s.34,.19,.44,.33,.17,.3,.21,.49c.02,.12,.04,.34,.04,.64v2.39h-.66v-2.37c0-.27-.03-.47-.08-.6-.05-.13-.14-.24-.27-.32-.13-.08-.28-.12-.46-.12-.28,0-.52,.09-.73,.27-.2,.18-.31,.52-.31,1.01v2.12h-.66Z"/><path class="cls-2" d="M163.24,46.32l.65,.08c-.07,.45-.25,.8-.54,1.05s-.65,.38-1.08,.38c-.53,0-.96-.17-1.28-.52-.32-.35-.49-.85-.49-1.5,0-.42,.07-.79,.21-1.1,.14-.32,.35-.55,.63-.71,.29-.16,.59-.24,.93-.24,.42,0,.77,.11,1.04,.32,.27,.21,.44,.52,.52,.91l-.64,.1c-.06-.26-.17-.46-.32-.59s-.34-.2-.56-.2c-.33,0-.6,.12-.81,.36-.21,.24-.31,.62-.31,1.13s.1,.9,.3,1.14c.2,.24,.46,.36,.78,.36,.26,0,.47-.08,.65-.24,.17-.16,.28-.4,.33-.73Z"/><path class="cls-2" d="M167.12,46.49l.68,.08c-.11,.4-.31,.71-.6,.93-.29,.22-.66,.33-1.11,.33-.57,0-1.02-.17-1.35-.53s-.5-.84-.5-1.47,.17-1.16,.51-1.52c.34-.36,.77-.54,1.31-.54s.95,.18,1.27,.53c.33,.35,.49,.85,.49,1.49,0,.04,0,.1,0,.18h-2.9c.02,.43,.14,.75,.36,.98,.22,.23,.49,.34,.81,.34,.24,0,.45-.06,.62-.19s.31-.33,.41-.61Zm-2.16-1.07h2.17c-.03-.33-.11-.57-.25-.74-.21-.25-.48-.38-.82-.38-.3,0-.56,.1-.76,.3-.21,.2-.32,.47-.34,.81Z"/><path class="cls-2" d="M168.62,47.74v-3.89h.59v.59c.15-.28,.29-.46,.42-.55,.13-.09,.27-.13,.42-.13,.22,0,.45,.07,.68,.21l-.23,.61c-.16-.09-.32-.14-.48-.14-.14,0-.27,.04-.39,.13-.12,.09-.2,.21-.25,.36-.07,.23-.11,.49-.11,.77v2.04h-.66Z"/><path class="cls-2" d="M172.56,47.15l.1,.58c-.19,.04-.35,.06-.5,.06-.24,0-.43-.04-.56-.11-.13-.08-.23-.17-.28-.3-.05-.12-.08-.38-.08-.78v-2.24h-.48v-.51h.48v-.96l.66-.4v1.36h.66v.51h-.66v2.27c0,.19,.01,.31,.04,.36,.02,.05,.06,.1,.11,.13,.05,.03,.13,.05,.23,.05,.07,0,.17,0,.29-.03Z"/><path class="cls-2" d="M175.74,47.26c-.24,.21-.48,.35-.71,.44-.23,.08-.47,.13-.73,.13-.43,0-.76-.1-.99-.31-.23-.21-.34-.47-.34-.8,0-.19,.04-.36,.13-.52,.09-.16,.2-.28,.34-.38,.14-.1,.3-.17,.47-.22,.13-.03,.32-.07,.59-.1,.53-.06,.92-.14,1.18-.23,0-.09,0-.15,0-.17,0-.27-.06-.46-.19-.57-.17-.15-.42-.22-.75-.22-.31,0-.54,.05-.69,.16-.15,.11-.26,.3-.33,.58l-.64-.09c.06-.28,.15-.5,.29-.67,.13-.17,.33-.3,.58-.39s.55-.14,.88-.14,.6,.04,.81,.12c.21,.08,.36,.18,.46,.29,.1,.12,.17,.27,.21,.45,.02,.11,.03,.31,.03,.61v.88c0,.61,.01,1,.04,1.16,.03,.16,.08,.32,.17,.47h-.69c-.07-.14-.11-.3-.13-.48Zm-.05-1.47c-.24,.1-.6,.18-1.08,.25-.27,.04-.46,.08-.57,.13-.11,.05-.2,.12-.26,.21-.06,.09-.09,.2-.09,.31,0,.18,.07,.32,.2,.44s.33,.18,.58,.18,.48-.06,.68-.17c.2-.11,.34-.26,.44-.46,.07-.15,.11-.37,.11-.66v-.24Z"/><path class="cls-2" d="M177.38,43.13v-.76h.66v.76h-.66Zm0,4.61v-3.89h.66v3.89h-.66Z"/><path class="cls-2" d="M179.04,47.74v-3.89h.59v.55c.29-.43,.7-.64,1.24-.64,.23,0,.45,.04,.65,.13s.34,.19,.44,.33,.17,.3,.21,.49c.02,.12,.04,.34,.04,.64v2.39h-.66v-2.37c0-.27-.03-.47-.08-.6-.05-.13-.14-.24-.27-.32-.13-.08-.28-.12-.46-.12-.28,0-.52,.09-.73,.27-.2,.18-.31,.52-.31,1.01v2.12h-.66Z"/><path class="cls-2" d="M184.65,47.15l.1,.58c-.19,.04-.35,.06-.5,.06-.24,0-.43-.04-.56-.11-.13-.08-.23-.17-.28-.3-.05-.12-.08-.38-.08-.78v-2.24h-.48v-.51h.48v-.96l.66-.4v1.36h.66v.51h-.66v2.27c0,.19,.01,.31,.04,.36,.02,.05,.06,.1,.11,.13,.05,.03,.13,.05,.23,.05,.07,0,.17,0,.29-.03Z"/><path class="cls-2" d="M185.27,49.24l-.07-.62c.14,.04,.27,.06,.38,.06,.15,0,.26-.02,.35-.07s.16-.12,.22-.21c.04-.07,.11-.23,.2-.49,.01-.04,.03-.09,.06-.16l-1.48-3.9h.71l.81,2.25c.1,.29,.2,.59,.28,.9,.08-.3,.17-.6,.27-.89l.83-2.27h.66l-1.48,3.96c-.16,.43-.28,.72-.37,.88-.12,.22-.25,.38-.4,.48-.15,.1-.33,.15-.54,.15-.13,0-.27-.03-.42-.08Z"/><path class="cls-2" d="M191.34,47.74v-5.37h.71v5.37h-.71Z"/><path class="cls-2" d="M193.22,47.74v-3.89h.59v.55c.29-.43,.7-.64,1.24-.64,.23,0,.45,.04,.65,.13s.34,.19,.44,.33,.17,.3,.21,.49c.02,.12,.04,.34,.04,.64v2.39h-.66v-2.37c0-.27-.03-.47-.08-.6-.05-.13-.14-.24-.27-.32-.13-.08-.28-.12-.46-.12-.28,0-.52,.09-.73,.27-.2,.18-.31,.52-.31,1.01v2.12h-.66Z"/><path class="cls-2" d="M199.55,47.74v-5.37h.73l2.82,4.22v-4.22h.68v5.37h-.73l-2.82-4.22v4.22h-.68Z"/><path class="cls-2" d="M204.99,47.74v-5.37h3.88v.63h-3.17v1.64h2.97v.63h-2.97v1.83h3.3v.63h-4.01Z"/><path class="cls-2" d="M212.44,47.74v-.57c-.3,.44-.71,.66-1.23,.66-.23,0-.44-.04-.64-.13-.2-.09-.35-.2-.44-.33-.1-.13-.17-.3-.2-.49-.03-.13-.04-.33-.04-.62v-2.41h.66v2.16c0,.34,.01,.58,.04,.7,.04,.17,.13,.31,.26,.41,.13,.1,.3,.15,.5,.15s.38-.05,.56-.15c.17-.1,.3-.24,.37-.41,.07-.17,.11-.43,.11-.76v-2.08h.66v3.89h-.59Z"/><path class="cls-2" d="M214.05,47.74v-3.89h.59v.59c.15-.28,.29-.46,.42-.55,.13-.09,.27-.13,.42-.13,.22,0,.45,.07,.68,.21l-.23,.61c-.16-.09-.32-.14-.48-.14-.14,0-.27,.04-.39,.13-.12,.09-.2,.21-.25,.36-.07,.23-.11,.49-.11,.77v2.04h-.66Z"/><path class="cls-2" d="M219.1,47.26c-.24,.21-.48,.35-.71,.44-.23,.08-.47,.13-.73,.13-.43,0-.76-.1-.99-.31-.23-.21-.34-.47-.34-.8,0-.19,.04-.36,.13-.52,.09-.16,.2-.28,.34-.38,.14-.1,.3-.17,.47-.22,.13-.03,.32-.07,.59-.1,.53-.06,.92-.14,1.18-.23,0-.09,0-.15,0-.17,0-.27-.06-.46-.19-.57-.17-.15-.42-.22-.75-.22-.31,0-.54,.05-.69,.16-.15,.11-.26,.3-.33,.58l-.64-.09c.06-.28,.15-.5,.29-.67,.13-.17,.33-.3,.58-.39s.55-.14,.88-.14,.6,.04,.81,.12c.21,.08,.36,.18,.46,.29,.1,.12,.17,.27,.21,.45,.02,.11,.03,.31,.03,.61v.88c0,.61,.01,1,.04,1.16,.03,.16,.08,.32,.17,.47h-.69c-.07-.14-.11-.3-.13-.48Zm-.05-1.47c-.24,.1-.6,.18-1.08,.25-.27,.04-.46,.08-.57,.13-.11,.05-.2,.12-.26,.21-.06,.09-.09,.2-.09,.31,0,.18,.07,.32,.2,.44s.33,.18,.58,.18,.48-.06,.68-.17c.2-.11,.34-.26,.44-.46,.07-.15,.11-.37,.11-.66v-.24Z"/><path class="cls-2" d="M220.71,47.74v-5.37h.66v5.37h-.66Z"/><path class="cls-2" d="M224.56,47.74v-5.37h.73l2.82,4.22v-4.22h.68v5.37h-.73l-2.82-4.22v4.22h-.68Z"/><path class="cls-2" d="M229.99,47.74v-5.37h3.88v.63h-3.17v1.64h2.97v.63h-2.97v1.83h3.3v.63h-4.01Z"/><path class="cls-2" d="M236.34,47.15l.1,.58c-.19,.04-.35,.06-.5,.06-.24,0-.43-.04-.56-.11-.13-.08-.23-.17-.28-.3-.05-.12-.08-.38-.08-.78v-2.24h-.48v-.51h.48v-.96l.66-.4v1.36h.66v.51h-.66v2.27c0,.19,.01,.31,.04,.36,.02,.05,.06,.1,.11,.13,.05,.03,.13,.05,.23,.05,.07,0,.17,0,.29-.03Z"/><path class="cls-2" d="M237.7,47.74l-1.19-3.89h.68l.62,2.24,.23,.83s.08-.31,.2-.8l.62-2.28h.68l.58,2.26,.19,.74,.22-.75,.67-2.25h.64l-1.22,3.89h-.68l-.62-2.33-.15-.66-.79,2.99h-.69Z"/><path class="cls-2" d="M242.15,45.8c0-.72,.2-1.25,.6-1.6,.33-.29,.74-.43,1.22-.43,.54,0,.97,.17,1.31,.53,.34,.35,.51,.83,.51,1.45,0,.5-.08,.89-.22,1.18-.15,.29-.37,.51-.66,.67-.29,.16-.6,.24-.94,.24-.54,0-.98-.17-1.32-.52-.34-.35-.5-.85-.5-1.51Zm.68,0c0,.5,.11,.87,.33,1.12,.22,.25,.49,.37,.82,.37s.6-.12,.82-.37c.22-.25,.33-.63,.33-1.14,0-.48-.11-.84-.33-1.09s-.49-.37-.82-.37-.6,.12-.82,.37c-.22,.25-.33,.62-.33,1.12Z"/><path class="cls-2" d="M246.56,47.74v-3.89h.59v.59c.15-.28,.29-.46,.42-.55,.13-.09,.27-.13,.42-.13,.22,0,.45,.07,.68,.21l-.23,.61c-.16-.09-.32-.14-.48-.14-.14,0-.27,.04-.39,.13-.12,.09-.2,.21-.25,.36-.07,.23-.11,.49-.11,.77v2.04h-.66Z"/><path class="cls-2" d="M249.07,47.74v-5.37h.66v3.06l1.56-1.58h.85l-1.49,1.44,1.64,2.45h-.81l-1.29-1.99-.46,.45v1.54h-.66Z"/><path class="cls-2" d="M252.55,46.58l.65-.1c.04,.26,.14,.46,.31,.6,.17,.14,.4,.21,.7,.21s.53-.06,.67-.18c.15-.12,.22-.27,.22-.43,0-.15-.06-.27-.19-.35-.09-.06-.31-.13-.67-.22-.48-.12-.82-.23-1-.32s-.33-.21-.42-.37c-.1-.16-.14-.33-.14-.52,0-.17,.04-.33,.12-.48,.08-.15,.19-.27,.32-.37,.1-.08,.24-.14,.42-.19s.37-.08,.57-.08c.3,0,.57,.04,.8,.13s.4,.21,.51,.36c.11,.15,.19,.35,.23,.6l-.64,.09c-.03-.2-.11-.36-.25-.47s-.34-.17-.59-.17c-.3,0-.52,.05-.65,.15-.13,.1-.19,.22-.19,.35,0,.09,.03,.16,.08,.23,.05,.07,.14,.13,.25,.18,.07,.03,.26,.08,.58,.17,.47,.12,.79,.23,.98,.31s.33,.2,.43,.35c.11,.15,.16,.34,.16,.56s-.06,.43-.19,.62c-.13,.19-.31,.34-.55,.45-.24,.11-.52,.16-.82,.16-.51,0-.89-.1-1.16-.31-.27-.21-.43-.52-.51-.93Z"/></g><g id="_0uubA.tif"><path class="cls-2" d="M63.13,22.42c1.49-3.09,3.66-5.47,7.06-6.52-.06,.03-.13,.06-.19,.1-.07,.05-.12,.1-.19,.15-2.67,2.09-4.51,4.8-5.86,7.88-.04,.09-.09,.18-.12,.28-.15,.59-.66,.64-1.13,.75-.07,.02-.21-.15-.27-.26-.29-.54-.53-1.11-.84-1.64-.34-.57-.83-1.01-1.38-1.39-.35-.24-.34-.33,.01-.57,.65-.45,1.37-.4,1.97,.16,.32,.3,.59,.65,.93,1.04Z"/></g></svg>