<?xml version="1.0" encoding="UTF-8"?><svg id="Layer_1" xmlns="http://www.w3.org/2000/svg" viewBox="0 0 73 52" style="background-color:#fff"><defs><style>.cls-1{fill:#009444;}.cls-2{fill:#7f3f98;}.cls-3{fill:#bca1cc;}.cls-4{fill:#1c75bc;}.cls-5{fill:none;stroke:#bcbec0;stroke-miterlimit:10;stroke-width:1.16px;}</style></defs><g><line class="cls-5" x1="38.46" y1="6.04" x2="51.61" y2="14.93"/><line class="cls-5" x1="38.46" y1="6.04" x2="25.69" y2="7.97"/><g><polyline class="cls-5" points="12.93 10.68 5.58 18.41 9.06 28.47 19.5 33.11 25.69 42.78"/><polyline class="cls-5" points="62.5 21.6 51.61 14.93 36.13 17.25 19.5 21.89 9.45 28.08"/><polyline class="cls-5" points="38.46 6.04 36.13 17.25 32.27 32.34 47.74 29.63 51.61 14.93"/><polyline class="cls-5" points="19.5 21.89 25.69 7.97 36.13 17.25"/></g></g><circle class="cls-1" cx="5.58" cy="18.41" r="3.09"/><circle class="cls-1" cx="12.93" cy="10.68" r="3.48"/><circle class="cls-4" cx="25.69" cy="7.97" r="5.42"/><circle class="cls-4" cx="38.46" cy="6.04" r="3.09"/><circle class="cls-3" cx="62.5" cy="21.6" r="5.42"/><circle class="cls-4" cx="51.61" cy="14.93" r="3.09"/><circle class="cls-4" cx="47.74" cy="29.63" r="4.64"/><circle class="cls-4" cx="36.13" cy="17.25" r="4.64"/><circle class="cls-4" cx="32.27" cy="32.34" r="5.42"/><circle class="cls-1" cx="25.69" cy="42.78" r="3.87"/><circle class="cls-1" cx="19.5" cy="33.11" r="3.09"/><circle class="cls-1" cx="9.45" cy="28.08" r="3.48"/><circle class="cls-1" cx="19.5" cy="21.89" r="4.25"/><g id="_0uubA.tif"><path class="cls-2" d="M62.63,22.42c1.49-3.09,3.66-5.47,7.06-6.52-.06,.03-.13,.06-.19,.1-.07,.05-.12,.1-.19,.15-2.67,2.09-4.51,4.8-5.86,7.88-.04,.09-.09,.18-.12,.28-.15,.59-.66,.64-1.13,.75-.07,.02-.21-.15-.27-.26-.29-.54-.53-1.11-.84-1.64-.34-.57-.83-1.01-1.38-1.39-.35-.24-.34-.33,.01-.57,.65-.45,1.37-.4,1.97,.16,.32,.3,.59,.65,.93,1.04Z"/></g></svg>